<svg width="44" height="44" viewBox="0 0 44 44" fill="none" xmlns="http://www.w3.org/2000/svg">
<path d="M29.3332 31.1664V34.8331H3.6665V31.1664C3.6665 31.1664 3.6665 23.8331 16.4998 23.8331C29.3332 23.8331 29.3332 31.1664 29.3332 31.1664ZM22.9165 13.7497C22.9165 12.4806 22.5402 11.24 21.8351 10.1848C21.13 9.12962 20.1279 8.30718 18.9554 7.82152C17.7829 7.33585 16.4927 7.20878 15.248 7.45637C14.0033 7.70396 12.86 8.31509 11.9626 9.21247C11.0652 10.1099 10.4541 11.2532 10.2065 12.4979C9.95888 13.7426 10.0859 15.0328 10.5716 16.2053C11.0573 17.3778 11.8797 18.3799 12.9349 19.085C13.9901 19.7901 15.2307 20.1664 16.4998 20.1664C18.2016 20.1664 19.8337 19.4904 21.0371 18.287C22.2405 17.0837 22.9165 15.4515 22.9165 13.7497ZM29.2232 23.8331C30.3502 24.7053 31.2724 25.8139 31.9249 27.0808C32.5774 28.3478 32.9443 29.7424 32.9998 31.1664V34.8331H40.3332V31.1664C40.3332 31.1664 40.3332 24.5114 29.2232 23.8331ZM27.4998 7.33308C26.2381 7.32721 25.0043 7.70438 23.9615 8.41474C25.0751 9.97076 25.6739 11.8363 25.6739 13.7497C25.6739 15.6632 25.0751 17.5287 23.9615 19.0847C25.0043 19.7951 26.2381 20.1723 27.4998 20.1664C29.2016 20.1664 30.8337 19.4904 32.0371 18.287C33.2405 17.0837 33.9165 15.4515 33.9165 13.7497C33.9165 12.0479 33.2405 10.4158 32.0371 9.21247C30.8337 8.00912 29.2016 7.33308 27.4998 7.33308Z" fill="#FFFBFA"/>
</svg>
