<svg width="44" height="44" viewBox="0 0 44 44" fill="none" xmlns="http://www.w3.org/2000/svg">
<path d="M9.1665 40.3337C8.15817 40.3337 7.29528 39.9749 6.57784 39.2575C5.86039 38.54 5.50106 37.6765 5.49984 36.667V15.9962C4.94984 15.66 4.50678 15.2249 4.17067 14.6908C3.83456 14.1567 3.6665 13.5377 3.6665 12.8337V7.33366C3.6665 6.32533 4.02584 5.46244 4.7445 4.74499C5.46317 4.02755 6.32606 3.66821 7.33317 3.66699H36.6665C37.6748 3.66699 38.5383 4.02633 39.257 4.74499C39.9757 5.46366 40.3344 6.32655 40.3332 7.33366V12.8337C40.3332 13.5364 40.1651 14.1555 39.829 14.6908C39.4929 15.2262 39.0498 15.6607 38.4998 15.9943V36.667C38.4998 37.6753 38.1411 38.5388 37.4237 39.2575C36.7062 39.9762 35.8427 40.3349 34.8332 40.3337H9.1665ZM7.33317 12.8337H36.6665V7.33366H7.33317V12.8337ZM16.4998 25.667H27.4998V22.0003H16.4998V25.667Z" fill="#FFFBFA"/>
</svg>
