<svg width="44" height="44" viewBox="0 0 44 44" fill="none" xmlns="http://www.w3.org/2000/svg">
<g clip-path="url(#clip0_621_69)">
<path d="M28.1113 4.88867H8.55577C7.90747 4.88867 7.28571 5.14621 6.82729 5.60463C6.36887 6.06306 6.11133 6.68481 6.11133 7.33312V36.6664C6.11133 37.3148 6.36887 37.9365 6.82729 38.3949C7.28571 38.8534 7.90747 39.1109 8.55577 39.1109H28.1113C28.7596 39.1109 29.3814 38.8534 29.8398 38.3949C30.2982 37.9365 30.5558 37.3148 30.5558 36.6664V29.3331H19.1035C18.7794 29.3331 18.4685 29.2043 18.2393 28.9751C18.0101 28.7459 17.8813 28.435 17.8813 28.1109C17.8813 27.7867 18.0101 27.4759 18.2393 27.2467C18.4685 27.0174 18.7794 26.8887 19.1035 26.8887H30.5558V7.33312C30.5558 6.68481 30.2982 6.06306 29.8398 5.60463C29.3814 5.14621 28.7596 4.88867 28.1113 4.88867Z" fill="#FFFBFA"/>
<path d="M34.4179 21.1201C34.1841 20.9198 33.8833 20.8152 33.5757 20.8271C33.2681 20.839 32.9763 20.9665 32.7586 21.1842C32.541 21.4018 32.4135 21.6936 32.4016 22.0012C32.3897 22.3088 32.4943 22.6096 32.6946 22.8434L36.8257 26.889H30.5557V29.3334H36.8257L32.6946 33.5623C32.5666 33.6719 32.4627 33.8067 32.3893 33.9583C32.316 34.11 32.2747 34.2751 32.2682 34.4434C32.2617 34.6118 32.2901 34.7796 32.3516 34.9365C32.413 35.0933 32.5062 35.2357 32.6253 35.3549C32.7444 35.474 32.8869 35.5672 33.0437 35.6286C33.2006 35.6901 33.3684 35.7184 33.5367 35.7119C33.7051 35.7054 33.8702 35.6642 34.0218 35.5908C34.1735 35.5175 34.3083 35.4136 34.4179 35.2856L41.5557 28.1967L34.4179 21.1201Z" fill="#FFFBFA"/>
</g>
<defs>
<clipPath id="clip0_621_69">
<rect width="44" height="44" fill="white"/>
</clipPath>
</defs>
</svg>
