<svg width="44" height="44" viewBox="0 0 44 44" fill="none" xmlns="http://www.w3.org/2000/svg">
<path d="M4.81266 33.3212L1.8335 31.167L11.0002 16.5003L16.5002 22.917L23.8335 11.0003L28.8293 18.4712C28.1266 18.5017 27.4617 18.586 26.8347 18.7242C26.2077 18.8623 25.5892 19.0529 24.9793 19.2962L23.971 17.7837L17.0043 29.1045L11.4585 22.642L4.81266 33.3212ZM39.5543 42.167L33.8252 36.4378C33.2141 36.8656 32.5345 37.1864 31.7865 37.4003C31.0385 37.6142 30.2667 37.7212 29.471 37.7212C27.1793 37.7212 25.2317 36.9194 23.6282 35.3158C22.0246 33.7123 21.2222 31.764 21.221 29.4712C21.2198 27.1783 22.0222 25.2307 23.6282 23.6283C25.2342 22.026 27.1818 21.2236 29.471 21.2212C31.7602 21.2187 33.7084 22.0211 35.3157 23.6283C36.9229 25.2355 37.7247 27.1832 37.721 29.4712C37.721 30.2656 37.614 31.0374 37.4002 31.7867C37.1863 32.5359 36.8654 33.2307 36.4377 33.8712L42.1668 39.5545L39.5543 42.167ZM29.471 34.0545C30.7543 34.0545 31.8391 33.6114 32.7252 32.7253C33.6113 31.8392 34.0543 30.7545 34.0543 29.4712C34.0543 28.1878 33.6113 27.1031 32.7252 26.217C31.8391 25.3309 30.7543 24.8878 29.471 24.8878C28.1877 24.8878 27.1029 25.3309 26.2168 26.217C25.3307 27.1031 24.8877 28.1878 24.8877 29.4712C24.8877 30.7545 25.3307 31.8392 26.2168 32.7253C27.1029 33.6114 28.1877 34.0545 29.471 34.0545ZM33.5502 19.3878C32.9696 19.1434 32.3664 18.9448 31.7407 18.792C31.1149 18.6392 30.4653 18.5475 29.7918 18.517L39.1877 3.66699L42.1668 5.82116L33.5502 19.3878Z" fill="#FFFBFA"/>
</svg>
