<svg id="Layer_1" data-name="Layer 1" xmlns="http://www.w3.org/2000/svg" viewBox="0 0 111.05 196"><defs><style>.cls-1{fill:#ebebd3;}</style></defs><path class="cls-1" d="M151.09,74.7l-16-13.86L80,12.88,72.22,6.14A16.76,16.76,0,0,0,44.47,18.79v178.9L80,146.35V70.74a17.6,17.6,0,1,1,29.31,13.13L87,97.62a11.75,11.75,0,0,0,.56,20.32l22.86,12.42L151.21,94a12.87,12.87,0,0,0-.12-19.34Z" transform="translate(-44.47 -2)"/><path class="cls-1" d="M51.38,197.52l60,.48a31.79,31.79,0,0,0,32-31.52h0c.25-31.31-40.15-44.07-57.93-18.31Z" transform="translate(-44.47 -2)"/></svg>